<?xml version="1.0" standalone="no"?>
<!DOCTYPE svg PUBLIC "-//W3C//DTD SVG 20010904//EN"
 "http://www.w3.org/TR/2001/REC-SVG-20010904/DTD/svg10.dtd">
<svg version="1.0" xmlns="http://www.w3.org/2000/svg"
 width="800.000000pt" height="800.000000pt" viewBox="0 0 800.000000 800.000000"
 preserveAspectRatio="xMidYMid meet">
<metadata>
Created by potrace 1.14, written by Peter Selinger 2001-2017
</metadata>
<g transform="translate(0.000000,800.000000) scale(0.100000,-0.100000)"
fill="#000000" stroke="none">
<path d="M3027 6914 c-1 -1 -49 -4 -107 -7 -482 -27 -915 -294 -1165 -719 -46
-76 -112 -216 -120 -253 -1 -5 -5 -17 -8 -25 -8 -19 -45 -165 -52 -205 -29
-169 -25 -378 11 -554 68 -336 289 -677 567 -875 37 -26 65 -51 64 -54 -8 -14
-131 -217 -135 -222 -2 -3 -422 -5 -934 -5 l-931 0 0 -1453 c0 -798 3 -1455 6
-1459 8 -8 4870 -8 4947 0 135 14 256 43 384 93 251 97 488 277 641 488 16 23
32 43 35 46 13 10 110 182 110 194 0 7 4 16 9 22 20 20 95 248 107 324 2 14 8
52 13 85 10 63 8 341 -3 410 -29 189 -112 423 -191 539 -14 20 -25 39 -25 42
0 11 -120 162 -171 215 -72 74 -173 159 -259 216 -39 25 -70 48 -70 50 0 3 24
45 53 93 l52 90 50 0 c28 1 467 2 978 2 l927 0 0 1459 c0 1383 -1 1459 -17
1460 -32 1 -4765 4 -4766 3z"/>
</g>
</svg>
