<?xml version="1.0" encoding="utf-8"?>
<!-- Generator: Adobe Illustrator 25.2.3, SVG Export Plug-In . SVG Version: 6.00 Build 0)  -->
<svg version="1.1" xmlns="http://www.w3.org/2000/svg" xmlns:xlink="http://www.w3.org/1999/xlink" x="0px" y="0px"
	 viewBox="0 0 2000 426" style="enable-background:new 0 0 2000 426;" xml:space="preserve">
<style type="text/css">
	.st0{display:none;}
	.st1{display:inline;fill:#DBDCDC;}
	.st2{fill:#FFFFFF;}
</style>
<g id="back" class="st0">
	<rect class="st1" width="2002.18" height="426"/>
</g>
<g id="레이어_1">
	<g>
		<path class="st2" d="M2000,210.37V15.58c0,0-318.95-0.01-320.37-0.01c-53.8,0-97.4,43.61-97.4,97.42
			c0,34.32,17.81,64.41,44.64,81.76l-9.5,15.63H0v194.8c0,0,1810.31-0.02,1811.72,0.01c53.83,1.41,100.04-42.42,99.38-97.4
			c-0.72-60.32-47.55-83.65-49.14-84.63l7.61-12.79H2000z M1891.83,63.35h59.24v17.49h-38.44v22.69h29.3v17.17h-29.3v24.42h38.76
			v17.49h-59.55V63.35z M1646.07,128.57h18.9v1.89c0,11.19,5.99,17.65,16.7,17.65c7.72,0,12.6-4.25,12.6-11.34
			c0-6.46-3.47-9.61-10.4-11.97l-14.34-4.73c-13.08-4.41-22.53-11.97-22.53-28.52c0-17.65,12.6-29.93,32.14-29.93
			c22.69,0,34.19,13.71,34.19,32.61v2.99h-18.9v-2.21c0-10.24-4.89-17.17-15.28-17.17c-7.56,0-12.13,4.57-12.13,11.5
			c0,5.67,3.31,8.98,9.29,11.19l14.18,5.04c15.44,5.51,24.26,13.24,24.26,28.83c0,18.91-13.71,29.93-32.93,29.93
			c-23,0-35.76-12.92-35.76-33.24V128.57z M1630.05,357.45h-15.6l-1.73-10.08c-2.84,7.56-10.4,11.82-21.11,11.82
			c-22.69,0-35.13-18.27-35.13-47.58v-7.09c0-29.46,12.61-48.05,37.65-48.05c24.58,0,35.61,16.23,35.61,40.65v1.1h-20.17v-1.1
			c0-14.97-4.73-23-15.28-23c-10.56,0-16.07,8.51-16.07,26.15v15.12c0,17.65,5.99,26.31,17.33,26.31c9.14,0,14.34-6.3,14.34-17.65
			v-1.26h-12.76v-15.44h32.93V357.45z M1689.44,321.85v35.61h-20.48v-35.61l-29.3-63.65h22.05l18.28,40.8l17.49-40.8h21.27
			L1689.44,321.85z M1750.99,63.35h25.52l28.52,99.25h-21.43l-6.14-22.85h-28.99l-6.3,22.85h-19.69L1750.99,63.35z M1821.61,357.45
			h-19.85v-70.27h-0.63l-17.8,70.27h-12.92l-17.65-70.27h-0.63v70.27h-18.75V258.2H1763l14.97,60.65h0.63l14.81-60.65h28.2V357.45z
			 M1868.36,123.06h-28.99v39.54h-21.11V63.35h57.82v17.49h-36.71v25.05h28.99V123.06z"/>
		<polygon class="st2" points="1763.43,87.61 1762.81,87.61 1753.04,123.06 1772.89,123.06 		"/>
	</g>
</g>
</svg>
