<?xml version="1.0" encoding="utf-8"?>
<!-- Generator: Adobe Illustrator 25.2.3, SVG Export Plug-In . SVG Version: 6.00 Build 0)  -->
<svg version="1.1" xmlns="http://www.w3.org/2000/svg" xmlns:xlink="http://www.w3.org/1999/xlink" x="0px" y="0px"
	 viewBox="0 0 400 85.2" style="enable-background:new 0 0 400 85.2;" xml:space="preserve">
<style type="text/css">
	.st0{display:none;}
	.st1{display:inline;fill:#DBDCDC;}
	.st2{fill:#FFFFFF;}
</style>
<g id="back" class="st0">
	<rect x="1.09" y="0" class="st1" width="400" height="85.2"/>
</g>
<g id="레이어_1">
	<g>
		<path class="st2" d="M400,42.85V3.89c0,0-63.79,0-64.07,0c-10.76,0-19.48,8.72-19.48,19.48c0,6.86,3.56,12.88,8.93,16.35
			l-1.9,3.13H0v38.96c0,0,362.06,0,362.34,0c10.77,0.28,20.01-8.48,19.88-19.48c-0.14-12.06-9.51-16.73-9.83-16.93l1.52-2.56H400z
			 M378.37,13.44h11.85v3.5h-7.69v4.54h5.86v3.43h-5.86v4.88h7.75v3.5h-11.91V13.44z M329.21,26.49h3.78v0.38
			c0,2.24,1.2,3.53,3.34,3.53c1.54,0,2.52-0.85,2.52-2.27c0-1.29-0.69-1.92-2.08-2.39l-2.87-0.95c-2.62-0.88-4.51-2.39-4.51-5.7
			c0-3.53,2.52-5.99,6.43-5.99c4.54,0,6.84,2.74,6.84,6.52v0.6h-3.78v-0.44c0-2.05-0.98-3.43-3.06-3.43c-1.51,0-2.43,0.91-2.43,2.3
			c0,1.13,0.66,1.8,1.86,2.24l2.84,1.01c3.09,1.1,4.85,2.65,4.85,5.77c0,3.78-2.74,5.99-6.59,5.99c-4.6,0-7.15-2.58-7.15-6.65V26.49
			z M326.01,72.26h-3.12l-0.35-2.02c-0.57,1.51-2.08,2.36-4.22,2.36c-4.54,0-7.03-3.65-7.03-9.52v-1.42c0-5.89,2.52-9.61,7.53-9.61
			c4.92,0,7.12,3.25,7.12,8.13v0.22h-4.03V60.2c0-2.99-0.95-4.6-3.06-4.6c-2.11,0-3.21,1.7-3.21,5.23v3.02
			c0,3.53,1.2,5.26,3.47,5.26c1.83,0,2.87-1.26,2.87-3.53v-0.25h-2.55v-3.09h6.59V72.26z M337.89,65.14v7.12h-4.1v-7.12l-5.86-12.73
			h4.41l3.66,8.16l3.5-8.16h4.25L337.89,65.14z M350.2,13.44h5.1l5.7,19.85h-4.29l-1.23-4.57h-5.8l-1.26,4.57h-3.94L350.2,13.44z
			 M364.32,72.26h-3.97V58.21h-0.13l-3.56,14.05h-2.58l-3.53-14.05h-0.13v14.05h-3.75V52.41h5.92l2.99,12.13h0.13l2.96-12.13h5.64
			V72.26z M373.67,25.39h-5.8v7.91h-4.22V13.44h11.56v3.5h-7.34v5.01h5.8V25.39z"/>
		<polygon class="st2" points="352.69,18.3 352.56,18.3 350.61,25.39 354.58,25.39 		"/>
	</g>
</g>
</svg>
