<?xml version="1.0" encoding="utf-8"?>
<!-- Generator: Adobe Illustrator 25.2.3, SVG Export Plug-In . SVG Version: 6.00 Build 0)  -->
<svg version="1.1" xmlns="http://www.w3.org/2000/svg" xmlns:xlink="http://www.w3.org/1999/xlink" x="0px" y="0px"
	 viewBox="0 0 1000 213" style="enable-background:new 0 0 1000 213;" xml:space="preserve">
<style type="text/css">
	.st0{display:none;}
	.st1{display:inline;fill:#DBDCDC;}
	.st2{fill:#FFFFFF;}
</style>
<g id="back" class="st0">
	<rect y="0" class="st1" width="1001.09" height="213"/>
</g>
<g id="레이어_1">
	<g>
		<path class="st2" d="M1000,106.49V9.09c0,0-159.47-0.01-160.18-0.01c-26.9,0-48.7,21.81-48.7,48.71
			c0,17.16,8.91,32.21,22.32,40.88l-4.75,7.81H0v97.4c0,0,905.15-0.01,905.86,0.01c26.92,0.71,50.02-21.21,49.69-48.7
			c-0.36-30.16-23.77-41.83-24.57-42.31l3.81-6.39H1000z M945.91,32.98h29.62v8.74h-19.22v11.34h14.65v8.59h-14.65v12.21h19.38v8.74
			h-29.78V32.98z M823.03,65.59h9.45v0.95c0,5.59,2.99,8.82,8.35,8.82c3.86,0,6.3-2.13,6.3-5.67c0-3.23-1.73-4.81-5.2-5.99
			l-7.17-2.36c-6.54-2.21-11.27-5.99-11.27-14.26c0-8.82,6.3-14.97,16.07-14.97c11.34,0,17.09,6.85,17.09,16.31v1.5h-9.45v-1.1
			c0-5.12-2.44-8.59-7.64-8.59c-3.78,0-6.07,2.29-6.07,5.75c0,2.84,1.65,4.49,4.65,5.59l7.09,2.52c7.72,2.76,12.13,6.62,12.13,14.42
			c0,9.45-6.85,14.97-16.46,14.97c-11.5,0-17.88-6.46-17.88-16.62V65.59z M815.02,180.03h-7.8l-0.87-5.04
			c-1.42,3.78-5.2,5.91-10.56,5.91c-11.34,0-17.57-9.14-17.57-23.79v-3.54c0-14.73,6.3-24.03,18.83-24.03
			c12.29,0,17.8,8.11,17.8,20.32v0.55h-10.08v-0.55c0-7.48-2.36-11.5-7.64-11.5c-5.28,0-8.04,4.25-8.04,13.08V159
			c0,8.82,2.99,13.16,8.67,13.16c4.57,0,7.17-3.15,7.17-8.82v-0.63h-6.38v-7.72h16.46V180.03z M844.72,162.23v17.8h-10.24v-17.8
			l-14.65-31.82h11.03l9.14,20.4l8.74-20.4h10.63L844.72,162.23z M875.49,32.98h12.76l14.26,49.63H891.8l-3.07-11.42h-14.49
			l-3.15,11.42h-9.85L875.49,32.98z M910.81,180.03h-9.93V144.9h-0.32l-8.9,35.13h-6.46l-8.82-35.13h-0.31v35.13h-9.37V130.4h14.81
			l7.48,30.33h0.31l7.4-30.33h14.1V180.03z M934.18,62.83h-14.49v19.77h-10.56V32.98h28.91v8.74h-18.35v12.53h14.49V62.83z"/>
		<polygon class="st2" points="881.72,45.11 881.4,45.11 876.52,62.83 886.44,62.83 		"/>
	</g>
</g>
</svg>
